<?xml version="1.0" encoding="utf-8"?>
<!-- Generator: Adobe Illustrator 25.0.0, SVG Export Plug-In . SVG Version: 6.00 Build 0)  -->
<svg version="1.1" id="Calque_1" xmlns="http://www.w3.org/2000/svg" xmlns:xlink="http://www.w3.org/1999/xlink" x="0px" y="0px"
	 viewBox="0 0 90.2 82.9" style="enable-background:new 0 0 90.2 82.9;" xml:space="preserve">
<style type="text/css">
	.st0{fill:#92C020;}
	.st1{fill:#FFFFFF;}
</style>
<path class="st0" d="M86.3,41.4c0,22.9-19.3,41.4-43.1,41.4S0,64.3,0,41.4S19.3,0,43.1,0S86.3,18.5,86.3,41.4"/>
<path class="st1" d="M31.4,12c-2.6,0-4.8,2.1-4.8,4.6v27.1c0,2.5,2.1,4.6,4.8,4.6s4.8-2.1,4.8-4.6V16.6C36.2,14,34,12,31.4,12"/>
<path class="st1" d="M54.9,34.5c-2.7,0-4.8,2.1-4.8,4.6v27.1c0,2.6,2.2,4.6,4.8,4.6c2.7,0,4.8-2.1,4.8-4.6V39.2
	C59.7,36.6,57.5,34.5,54.9,34.5"/>
</svg>
