<?xml version="1.0" encoding="utf-8"?>
<!-- Generator: Adobe Illustrator 25.0.0, SVG Export Plug-In . SVG Version: 6.00 Build 0)  -->
<svg version="1.1" id="Calque_1" xmlns="http://www.w3.org/2000/svg" xmlns:xlink="http://www.w3.org/1999/xlink" x="0px" y="0px"
	 viewBox="0 0 219.55 82.86" style="enable-background:new 0 0 219.55 82.86;" xml:space="preserve">
<style type="text/css">
	.st0{fill:#FFFFFF;}
	.st1{clip-path:url(#SVGID_2_);fill:#FFFFFF;}
	.st2{clip-path:url(#SVGID_2_);fill:#92C020;}
</style>
<polygon class="st0" points="100.97,16.35 131.39,16.35 131.39,23.39 120.76,23.39 120.76,49.04 111.5,49.04 111.5,23.39 
	100.97,23.39 "/>
<polygon class="st0" points="135.13,16.35 144.39,16.35 144.39,29.69 158.72,29.69 158.72,16.35 167.98,16.35 167.98,49.04 
	158.72,49.04 158.72,36.49 144.39,36.49 144.39,49.04 135.13,49.04 "/>
<g>
	<defs>
		<rect id="SVGID_1_" y="0" width="219.55" height="82.86"/>
	</defs>
	<clipPath id="SVGID_2_">
		<use xlink:href="#SVGID_1_"  style="overflow:visible;"/>
	</clipPath>
	<path class="st1" d="M199.99,18.4c2.85,1.37,5.07,3.29,6.65,5.76c1.59,2.47,2.38,5.31,2.38,8.51c0,3.2-0.8,6.05-2.4,8.53
		c-1.6,2.49-3.86,4.41-6.78,5.78c-2.92,1.37-6.27,2.05-10.05,2.05h-14.93V16.35h15.28C193.86,16.35,197.14,17.03,199.99,18.4
		 M195.16,40.97c1.38-0.78,2.46-1.88,3.24-3.31c0.78-1.43,1.16-3.06,1.16-4.9c0-1.87-0.41-3.51-1.24-4.94s-1.96-2.54-3.42-3.33
		s-3.1-1.19-4.96-1.19h-5.82v18.84h6.28C192.19,42.13,193.77,41.75,195.16,40.97"/>
	<path class="st2" d="M218.34,42.46c0.81,0.75,1.21,1.71,1.21,2.89c0,1.18-0.41,2.15-1.21,2.91c-0.81,0.76-1.86,1.14-3.14,1.14
		c-1.25,0-2.28-0.38-3.09-1.14c-0.81-0.76-1.21-1.73-1.21-2.91c0-1.18,0.4-2.15,1.19-2.89c0.79-0.75,1.83-1.12,3.11-1.12
		C216.48,41.34,217.53,41.72,218.34,42.46"/>
	<path class="st1" d="M107.21,58.22c-0.46-0.18-0.94-0.27-1.44-0.27c-0.68,0-1.31,0.15-1.88,0.45s-1.02,0.72-1.35,1.24
		c-0.33,0.53-0.5,1.1-0.5,1.72c0,0.62,0.17,1.19,0.5,1.71s0.78,0.93,1.35,1.24s1.2,0.46,1.88,0.46c0.49,0,0.97-0.09,1.43-0.26
		c0.46-0.18,0.88-0.42,1.24-0.73l0.53,0.52c-0.44,0.37-0.94,0.67-1.51,0.89c-0.56,0.22-1.14,0.33-1.73,0.33
		c-0.83,0-1.6-0.19-2.3-0.56c-0.7-0.37-1.25-0.88-1.66-1.51c-0.41-0.64-0.61-1.33-0.61-2.09c0-0.75,0.21-1.44,0.62-2.07
		c0.41-0.63,0.97-1.13,1.68-1.5c0.7-0.37,1.47-0.55,2.31-0.55c0.6,0,1.18,0.1,1.73,0.31c0.56,0.21,1.05,0.49,1.47,0.86l-0.52,0.56
		C108.08,58.65,107.67,58.4,107.21,58.22"/>
	<path class="st1" d="M116.71,65.46l-1.91-2.66c-0.27,0.02-0.48,0.02-0.62,0.02h-2.43v2.63h-0.87v-8.15h3.3
		c1.1,0,1.96,0.24,2.56,0.7c0.6,0.47,0.9,1.14,0.9,2c0,0.68-0.18,1.24-0.53,1.69c-0.35,0.45-0.86,0.76-1.52,0.94l2.12,2.81H116.71z
		 M114.18,62.1c0.84,0,1.49-0.18,1.95-0.53c0.46-0.35,0.68-0.87,0.68-1.53c0-0.65-0.23-1.15-0.68-1.49
		c-0.46-0.34-1.1-0.51-1.95-0.51h-2.43v4.07H114.18z"/>
	<polygon class="st1" points="120.02,57.31 125.94,57.31 125.94,58.03 120.89,58.03 120.89,60.95 125.41,60.95 125.41,61.67 
		120.89,61.67 120.89,64.74 126.1,64.74 126.1,65.46 120.02,65.46 	"/>
	<path class="st1" d="M134.85,65.46l-1.05-2.17h-4.91l-1.04,2.17h-0.94l3.99-8.15h0.91l3.99,8.15H134.85z M129.23,62.57h4.23
		l-2.13-4.4L129.23,62.57z"/>
	<polygon class="st1" points="135.18,57.3 141.89,57.3 141.89,58.03 138.97,58.03 138.97,65.46 138.1,65.46 138.1,58.03 
		135.18,58.03 	"/>
	<rect x="143.42" y="57.31" class="st1" width="0.87" height="8.15"/>
	<polygon class="st1" points="145.78,57.31 146.71,57.31 149.86,64.57 153,57.31 153.92,57.31 150.29,65.46 149.38,65.46 	"/>
	<polygon class="st1" points="155.4,57.31 161.32,57.31 161.32,58.03 156.27,58.03 156.27,60.95 160.79,60.95 160.79,61.67 
		156.27,61.67 156.27,64.74 161.49,64.74 161.49,65.46 155.4,65.46 	"/>
	<path class="st2" d="M173.71,65.46l-1.05-2.17h-4.91l-1.04,2.17h-0.94l3.99-8.15h0.91l3.99,8.15H173.71z M168.09,62.57h4.23
		l-2.13-4.4L168.09,62.57z"/>
	<path class="st2" d="M182.11,61.47h0.77v2.98c-0.43,0.33-0.93,0.6-1.5,0.79c-0.57,0.19-1.15,0.28-1.74,0.28
		c-0.83,0-1.6-0.19-2.31-0.56c-0.71-0.37-1.26-0.88-1.68-1.51c-0.41-0.64-0.62-1.33-0.62-2.09c0-0.75,0.21-1.44,0.62-2.08
		c0.41-0.63,0.98-1.13,1.69-1.5c0.71-0.37,1.49-0.55,2.33-0.55c0.6,0,1.18,0.1,1.74,0.29c0.56,0.19,1.06,0.47,1.49,0.82l-0.51,0.57
		c-0.36-0.31-0.78-0.55-1.25-0.72s-0.96-0.25-1.47-0.25c-0.68,0-1.31,0.15-1.89,0.46c-0.57,0.31-1.03,0.72-1.37,1.24
		s-0.51,1.09-0.51,1.71c0,0.63,0.17,1.21,0.51,1.73c0.34,0.52,0.79,0.94,1.37,1.25c0.58,0.31,1.21,0.46,1.89,0.46
		c0.42,0,0.84-0.06,1.26-0.19c0.42-0.13,0.8-0.31,1.16-0.54V61.47z"/>
	<polygon class="st2" points="185.45,57.31 191.37,57.31 191.37,58.03 186.32,58.03 186.32,60.95 190.83,60.95 190.83,61.67 
		186.32,61.67 186.32,64.74 191.53,64.74 191.53,65.46 185.45,65.46 	"/>
	<polygon class="st2" points="200.08,57.31 200.94,57.31 200.94,65.46 200.02,65.46 194.54,58.56 194.54,65.46 193.67,65.46 
		193.67,57.31 194.59,57.31 200.08,64.21 	"/>
	<path class="st2" d="M208.94,58.22c-0.46-0.18-0.94-0.27-1.44-0.27c-0.68,0-1.31,0.15-1.88,0.45s-1.02,0.72-1.35,1.24
		c-0.33,0.53-0.5,1.1-0.5,1.72c0,0.62,0.17,1.19,0.5,1.71c0.33,0.52,0.78,0.93,1.35,1.24s1.2,0.46,1.88,0.46
		c0.49,0,0.97-0.09,1.43-0.26c0.46-0.18,0.88-0.42,1.24-0.73l0.53,0.52c-0.44,0.37-0.94,0.67-1.51,0.89
		c-0.56,0.22-1.14,0.33-1.73,0.33c-0.83,0-1.6-0.19-2.3-0.56c-0.7-0.37-1.26-0.88-1.66-1.51c-0.41-0.64-0.61-1.33-0.61-2.09
		c0-0.75,0.21-1.44,0.62-2.07c0.41-0.63,0.97-1.13,1.68-1.5c0.7-0.37,1.47-0.55,2.31-0.55c0.6,0,1.18,0.1,1.73,0.31
		c0.56,0.21,1.05,0.49,1.47,0.86l-0.52,0.56C209.81,58.65,209.4,58.4,208.94,58.22"/>
	<polygon class="st2" points="219.01,57.31 215.6,62.56 215.6,65.46 214.73,65.46 214.73,62.56 211.28,57.31 212.19,57.31 
		215.17,61.69 218.1,57.31 	"/>
	<path class="st2" d="M86.28,41.43c0,22.88-19.32,41.43-43.14,41.43S0,64.31,0,41.43S19.32,0,43.14,0S86.28,18.55,86.28,41.43"/>
	<path class="st1" d="M31.39,11.98c-2.65,0-4.8,2.07-4.8,4.61v27.09c0,2.55,2.15,4.61,4.8,4.61c2.65,0,4.8-2.07,4.8-4.61V16.6
		C36.19,14.05,34.04,11.98,31.39,11.98"/>
	<path class="st1" d="M54.89,34.55c-2.65,0-4.8,2.07-4.8,4.61v27.09c0,2.55,2.15,4.61,4.8,4.61c2.65,0,4.8-2.07,4.8-4.61V39.17
		C59.7,36.62,57.55,34.55,54.89,34.55"/>
</g>
</svg>
